<?xml version="1.0" encoding="utf-8"?>
<!-- Generator: Adobe Illustrator 16.0.0, SVG Export Plug-In . SVG Version: 6.00 Build 0)  -->
<!DOCTYPE svg PUBLIC "-//W3C//DTD SVG 1.1//EN" "http://www.w3.org/Graphics/SVG/1.1/DTD/svg11.dtd">
<svg version="1.1" id="Layer_1" xmlns="http://www.w3.org/2000/svg" xmlns:xlink="http://www.w3.org/1999/xlink" x="0px" y="0px"
	 width="1000px" height="500px" viewBox="0 0 1000 500" enable-background="new 0 0 1000 500" xml:space="preserve">
<g>
	<path fill="#BF3837" d="M322.5,342.8c33.9-14.3,55.5-36.2,32.7-69c0,0-11.9-10.2-26.3-16.1c-0.3-64.3-44.4-118.1-103.8-132.3
		c-0.6-1-1.2-2-1.7-3c-4.9-10-29.3-14.1-29.3-14.1v-0.2c0,0-24.5,4.2-29.3,14.1c-0.5,1.1-1.2,2.2-1.8,3.2
		c-59.3,14.2-103.5,68.1-103.6,132.5C45,263.9,33.1,274,33.1,274c-22.7,32.7-1.4,54.4,32.3,68.8C69.2,344.5,188.9,393.4,322.5,342.8
		z"/>
	<path opacity="0.1" fill="#E0DEDE" enable-background="new    " d="M225.4,125.3c-0.6-1-1.2-2-1.7-3c-4.9-10-29.3-14.2-29.3-14.2
		s23.4,66.1,5.6,201.5c0,0,128.3,3,128.9-51.699C328.7,193.6,284.7,139.6,225.4,125.3z M230.6,141c0,0,76.7,9,81.1,101.7
		c0,0.1,0,0.2,0,0.2c0-0.1,0-0.1,0-0.2C311.6,239.5,307,190.3,230.6,141z"/>
	<path opacity="0.1" fill="#F2F1F0" enable-background="new    " d="M355.3,273.8c0,0-11.9-10.2-26.3-16.1
		c-2.6,54.1-128.7,52.1-128.7,52.1s47.6,50.601,16.3,55.3c32.8-1.8,68.9-8.199,106-22.3C356.5,328.5,378,306.7,355.3,273.8z"/>
</g>
<path fill="#636463" d="M261.1,170.1l-60-41.3l-60,41.3c0,0-16.8,9.7-11.6,34.7c0,0,11.1,26,5.8,42.8c0,0,18.9,26.5,18.9,41.7
	s46.8,11.9,46.8,11.9s46.8,3.2,46.8-11.9c0-15.2,18.9-41.7,18.9-41.7c-5.3-16.8,5.8-42.8,5.8-42.8
	C277.9,179.8,261.1,170.1,261.1,170.1z"/>
<path fill="#E5E3E3" d="M261.5,174.8l-59.3-40.1L143,174.8c0,0-16.6,9.5-11.4,33.7c0,0,10.9,25.3,5.7,41.6c0,0,18.7,25.8,18.7,40.5
	c0,14.7,46.3,11.601,46.3,11.601s46.3,3.2,46.3-11.601c0-14.699,18.7-40.5,18.7-40.5c-5.2-16.3,5.7-41.6,5.7-41.6
	C278.2,184.3,261.5,174.8,261.5,174.8z"/>
<path fill="#9D9D9D" d="M258.9,177.9l-55.8-37.3l-55.8,37.3c0,0-15.7,8.8-10.8,31.3c0,0,10.3,23.5,5.4,38.7c0,0,17.6,24,17.6,37.7
	c0,13.7,43.6,10.801,43.6,10.801s43.6,2.899,43.6-10.801c0-13.699,17.6-37.7,17.6-37.7c-4.9-15.2,5.4-38.7,5.4-38.7
	C274.6,186.7,258.9,177.9,258.9,177.9z"/>
<circle fill="#636463" cx="204.1" cy="222" r="39.7"/>
<circle fill="#E5E3E3" cx="203.1" cy="218.6" r="39.7"/>
<circle fill="#E5E3E3" cx="203.1" cy="218.6" r="39.7"/>
<rect x="183.8" y="206" fill="#636463" width="4.2" height="30.9"/>
<rect x="218.2" y="206.1" fill="#636463" width="4.2" height="30.9"/>
<rect x="183.8" y="203.1" fill="#A3A2A2" width="4.2" height="30.9"/>
<rect x="218.2" y="203.2" fill="#A3A2A2" width="4.2" height="30.9"/>
<path opacity="0.2" fill="#E8E7E6" enable-background="new    " d="M258.9,171.1l-55.8-41.3c0,0,1.7,20.7,2.9,49.2
	c19,1.6,34,18.7,34,39.6c0,0.7,0,1.5-0.1,2.2c0,0.7,0.1,1.5,0.1,2.2c0,20.7-14.7,37.7-33.5,39.5c-0.6,14.3-1.7,27.8-3.4,39.7
	c0,0,43.5,3.2,43.5-11.601c0-14.699,17.6-40.5,17.6-40.5c-0.1-0.4-0.2-0.7-0.3-1.1c0.2-0.3,0.3-0.4,0.3-0.4c-0.9-3-1.2-6.2-1.3-9.6
	c0.3-14.7,6.7-30.5,6.7-30.5c0.8-3.9,1-7.4,0.9-10.6C271.2,178.8,258.9,171.1,258.9,171.1z"/>
<rect x="390.5" y="172.3" fill="none" width="602.4" height="136.101"/>
<g enable-background="new    ">
	<path fill="#BF3938" d="M446.743,294.874l-7.049-33.299h-29.249l-6.75,33.299h-10.199l24.599-122.545h13.35l25.649,122.545H446.743
		z M438.344,253.025l-13.5-63.597c-4.2,20.099-8.1,39.448-13.049,63.597H438.344z"/>
	<path fill="#BF3938" d="M466.995,172.329h29.249c14.399,0,26.099,12.3,26.099,27.449v15.449c0,7.499-4.2,13.799-10.649,18.749
		c9.299,5.55,14.999,14.55,14.999,23.999v7.199c0,16.649-12.749,29.699-28.349,29.699h-31.199L466.995,172.329z M476.895,182.229
		v49.048h19.349c8.549,0,16.049-7.499,16.049-16.049v-19.949c0-7.05-7.5-13.05-16.049-13.05H476.895z M476.895,239.677v45.298
		h21.449c9.899,0,18.299-6.899,18.299-15.3v-11.699c0-9.899-8.399-18.299-18.299-18.299H476.895z"/>
	<path fill="#BF3938" d="M551.294,294.874h-10.35l-0.15-122.545h10.5V294.874z"/>
</g>
<g enable-background="new    ">
	<path fill="#636463" d="M607.494,216.427c0,8.101,8.4,13.2,17.85,13.65c13.8,1.05,27.148,9.149,27.148,21.749v17.549
		c0,14.399-12.449,26.099-27.448,26.099c-15.3,0-27.448-11.699-27.599-26.099v-11.85h9.899v11.85c0,8.55,8.249,16.199,17.699,16.199
		c9.899,0,17.399-7.649,17.399-16.199v-17.549c0-7.2-8.4-12.149-17.699-12.149c-14.549,0-27.299-9.9-27.299-23.25v-17.999
		c0-14.399,12.299-26.099,27.599-26.099s27.448,11.699,27.448,26.099v12.3h-9.898v-12.3c0-9.149-8.25-16.199-17.55-16.199
		c-10.05,0-17.55,7.649-17.55,16.199V216.427z"/>
	<path fill="#636463" d="M712.941,294.874l-7.049-33.299h-29.25l-6.75,33.299h-10.199l24.6-122.545h13.35l25.648,122.545H712.941z
		 M704.542,253.025l-13.499-63.597c-4.2,20.099-8.1,39.448-13.05,63.597H704.542z"/>
	<path fill="#636463" d="M776.541,231.127v8.399h-33.148v55.348h-9.75l-0.149-122.545h47.099v9.899h-37.199v48.898H776.541z"/>
	<path fill="#636463" d="M835.49,172.329v9.899h-37.199v48.898h33.148v8.399h-33.148v45.448h37.199v9.899h-46.949l-0.149-122.545
		H835.49z"/>
	<path fill="#636463" d="M877.189,294.874h-9.9V182.229h-21.898v-9.899h53.098v9.899h-21.299V294.874z"/>
	<path fill="#636463" d="M937.189,294.874v-59.098c-9.45-19.649-20.55-43.948-30-63.447h11.25l23.85,49.798
		c7.649-16.199,16.499-34.198,23.849-49.798h11.249l-30.299,63.447v59.098H937.189z"/>
</g>
<line fill="none" stroke="#636463" stroke-width="10" stroke-miterlimit="10" x1="546.1" y1="160.5" x2="564.1" y2="160.5"/>
<line fill="none" stroke="#BF3837" stroke-width="10" stroke-miterlimit="10" x1="528.1" y1="160.5" x2="546.1" y2="160.5"/>
<path fill="#636463" stroke="#636463" stroke-width="10" stroke-miterlimit="10" d="M999.8,319.2"/>
<polygon fill="#636463" points="564.1,144.4 564.1,160.5 564.1,176.6 579.1,160.5 "/>
<polygon fill="#BF3938" points="528.1,144.4 528.1,160.5 528.1,176.6 513.1,160.5 "/>
</svg>
